<svg version="1.2" xmlns="http://www.w3.org/2000/svg" xmlns:xlink="http://www.w3.org/1999/xlink" overflow="visible" preserveAspectRatio="none" viewBox="-5.4879999999999995 0 49 49" width="22" height="22"><g><path xmlns:default="http://www.w3.org/2000/svg" d="M27.5,49.7L27.5,49.7c-2.2,0-4.1-1.3-4.1-1.3c-0.8-0.5-1.7-0.8-2.9-0.8c-1.8,0-3.5,0.6-3.8,0.8c-1.2,0.8-2.4,1.2-3.6,1.2  c-2,0-3.4-1.1-3.7-1.4c-4.2-3.1-7.7-11.3-7.8-11.7c-5-15.7,4.6-21.5,5.6-22c1.3-0.9,2.9-1.3,4.7-1.3c3.3,0,6.4,1.6,7.7,2.4  c3-1.8,5.9-2.6,8.6-2.6c6.4,0,9.3,5,9.4,5.2c0.1,0.2,0.2,0.5,0.1,0.8c-0.1,0.3-0.3,0.5-0.5,0.6c-3,1.5-4.9,4.5-4.9,7.8  c0,3.8,2.4,7.1,6,8.2c0.4,0.1,0.7,0.5,0.7,0.9l0,0.1c0,0.1,0,0.3-0.1,0.4c-2.4,6.6-7.1,10.8-7.6,11.2C30.1,49.1,28.9,49.7,27.5,49.7  z M24.5,46.7c0,0,1.4,1,3,1l0,0c0.9,0,1.6-0.3,2.2-1c0,0,0.1,0,0.1-0.1c0,0,4.3-3.7,6.7-9.6c-3.9-1.7-6.5-5.5-6.5-9.8  c0-3.7,1.9-7.1,5-9c-1-1.2-3.3-3.4-7.1-3.4c-2.5,0-5.2,0.9-8.1,2.7c-0.3,0.2-0.8,0.2-1.1,0c0,0-3.5-2.4-7.1-2.4  c-1.4,0-2.6,0.3-3.6,1c0,0-0.1,0-0.1,0.1c-0.4,0.2-9.4,5-4.7,19.6l0,0c0,0,3.5,8.1,7.2,10.8c0,0,0.1,0.1,0.1,0.1  c0,0,0.9,0.9,2.3,0.9c0.8,0,1.7-0.3,2.6-0.9c0.1,0,0.1-0.1,0.2-0.1c0.1,0,2.3-1,4.7-1C22,45.5,23.4,45.9,24.5,46.7L24.5,46.7z   M19.1,13c-0.3,0-0.5-0.1-0.7-0.3c-0.2-0.2-0.3-0.5-0.3-0.8C18.7,1.2,28.3,0,28.4,0c0.3,0,0.5,0.1,0.8,0.2c0.2,0.2,0.3,0.4,0.4,0.7  C30.1,12.1,19.2,13,19.1,13C19.1,13,19.1,13,19.1,13z M27.5,2.2c-2.1,0.6-6.5,2.5-7.4,8.6C22.5,10.3,27.3,8.5,27.5,2.2z" style="fill: rgb(255, 255, 255);" vector-effect="non-scaling-stroke"/></g></svg>